<mxfile host="app.diagrams.net" agent="Mozilla/5.0 (Macintosh; Intel Mac OS X 10_15_7) AppleWebKit/537.36 (KHTML, like Gecko) Chrome/139.0.0.0 Safari/537.36" version="28.1.2">
  <diagram name="Page-1" id="tvLAB2uGc-5grK_Enac1">
    <mxGraphModel dx="2827" dy="1507" grid="1" gridSize="10" guides="1" tooltips="1" connect="1" arrows="1" fold="1" page="0" pageScale="1" pageWidth="1100" pageHeight="850" math="0" shadow="0">
      <root>
        <mxCell id="0" />
        <mxCell id="1" parent="0" />
        <mxCell id="dEbh50wQoavsR-OBHUa4-4" value="" style="html=1;overflow=block;blockSpacing=1;whiteSpace=wrap;fontSize=16.8;fontStyle=1;align=center;spacing=9;strokeOpacity=100;fillOpacity=100;rounded=0;absoluteArcSize=1;arcSize=12;strokeWidth=2.3;lucidId=vB_j5El_Hg4W;fillColor=#EBEBEB;" vertex="1" parent="1">
          <mxGeometry x="-451" y="155.75" width="670" height="91.25" as="geometry" />
        </mxCell>
        <mxCell id="cWuKMoKahMMsqKZCvLfM-26" style="edgeStyle=orthogonalEdgeStyle;rounded=0;orthogonalLoop=1;jettySize=auto;html=1;exitX=1;exitY=0.5;exitDx=0;exitDy=0;entryX=0;entryY=0.5;entryDx=0;entryDy=0;fontStyle=1;fontSize=16;strokeWidth=2;" parent="1" source="cWuKMoKahMMsqKZCvLfM-1" target="cWuKMoKahMMsqKZCvLfM-13" edge="1">
          <mxGeometry relative="1" as="geometry" />
        </mxCell>
        <mxCell id="cWuKMoKahMMsqKZCvLfM-1" value="Gasoline Consumption from Transport by State (2023)" style="html=1;overflow=block;blockSpacing=1;whiteSpace=wrap;fontSize=16.8;fontStyle=1;align=center;spacing=9;strokeOpacity=100;fillOpacity=0;rounded=0;absoluteArcSize=1;arcSize=12;strokeWidth=2.3;lucidId=Ra_jEc_tzvwS;strokeColor=#1C9B1F;" parent="1" vertex="1">
          <mxGeometry x="-995" y="-240" width="195" height="112" as="geometry" />
        </mxCell>
        <mxCell id="cWuKMoKahMMsqKZCvLfM-27" style="edgeStyle=orthogonalEdgeStyle;rounded=0;orthogonalLoop=1;jettySize=auto;html=1;entryX=0;entryY=0.5;entryDx=0;entryDy=0;fontStyle=1;strokeWidth=2;" parent="1" source="cWuKMoKahMMsqKZCvLfM-2" target="cWuKMoKahMMsqKZCvLfM-13" edge="1">
          <mxGeometry relative="1" as="geometry" />
        </mxCell>
        <mxCell id="cWuKMoKahMMsqKZCvLfM-2" value="% of U.S. Transport Gasoline Use from On-Road Transport (2024)" style="html=1;overflow=block;blockSpacing=1;whiteSpace=wrap;fontSize=16.8;fontStyle=1;align=center;spacing=9;strokeOpacity=100;fillOpacity=0;rounded=0;absoluteArcSize=1;arcSize=12;fillColor=#000000;strokeWidth=2.3;lucidId=Bf6ri0L1tkaB;strokeColor=#1C9B1F;" parent="1" vertex="1">
          <mxGeometry x="-995" y="-109" width="195" height="112" as="geometry" />
        </mxCell>
        <mxCell id="cWuKMoKahMMsqKZCvLfM-28" style="edgeStyle=orthogonalEdgeStyle;rounded=0;orthogonalLoop=1;jettySize=auto;html=1;exitX=1;exitY=0.5;exitDx=0;exitDy=0;entryX=0;entryY=0.5;entryDx=0;entryDy=0;fontStyle=1;strokeWidth=2;" parent="1" source="cWuKMoKahMMsqKZCvLfM-3" target="cWuKMoKahMMsqKZCvLfM-13" edge="1">
          <mxGeometry relative="1" as="geometry" />
        </mxCell>
        <mxCell id="cWuKMoKahMMsqKZCvLfM-3" value="U.S. On-Road Transport Gasoline Use Projections (2023-2050)" style="html=1;overflow=block;blockSpacing=1;whiteSpace=wrap;fontSize=16.8;fontStyle=1;align=center;spacing=9;strokeOpacity=100;fillOpacity=0;rounded=0;absoluteArcSize=1;arcSize=12;fillColor=#000000;strokeWidth=2.3;lucidId=fg6rZgMcyNaT;strokeColor=#1C9B1F;" parent="1" vertex="1">
          <mxGeometry x="-995" y="32" width="195" height="112" as="geometry" />
        </mxCell>
        <mxCell id="cWuKMoKahMMsqKZCvLfM-34" style="edgeStyle=orthogonalEdgeStyle;rounded=0;orthogonalLoop=1;jettySize=auto;html=1;exitX=1;exitY=0.5;exitDx=0;exitDy=0;entryX=0;entryY=0.5;entryDx=0;entryDy=0;strokeWidth=2;" parent="1" source="cWuKMoKahMMsqKZCvLfM-4" target="cWuKMoKahMMsqKZCvLfM-6" edge="1">
          <mxGeometry relative="1" as="geometry" />
        </mxCell>
        <mxCell id="cWuKMoKahMMsqKZCvLfM-4" value="Relative Fuel Economy of LD FCEVs to ICEVs " style="html=1;overflow=block;blockSpacing=1;whiteSpace=wrap;fontSize=16.7;fontStyle=1;align=center;spacing=9;strokeOpacity=100;fillOpacity=0;rounded=0;absoluteArcSize=1;arcSize=12;fillColor=#000000;strokeWidth=2.3;lucidId=.a_jLDfp3aDH;strokeColor=#1C9B1F;" parent="1" vertex="1">
          <mxGeometry x="-717" y="144" width="195" height="90" as="geometry" />
        </mxCell>
        <mxCell id="cWuKMoKahMMsqKZCvLfM-38" style="edgeStyle=orthogonalEdgeStyle;rounded=0;orthogonalLoop=1;jettySize=auto;html=1;exitX=1;exitY=0.5;exitDx=0;exitDy=0;entryX=0;entryY=0.5;entryDx=0;entryDy=0;strokeWidth=2;" parent="1" source="cWuKMoKahMMsqKZCvLfM-6" target="cWuKMoKahMMsqKZCvLfM-36" edge="1">
          <mxGeometry relative="1" as="geometry" />
        </mxCell>
        <mxCell id="cWuKMoKahMMsqKZCvLfM-6" value=" Projected LD Transport H2 Demand by State" style="html=1;overflow=block;blockSpacing=1;whiteSpace=wrap;fontSize=16.8;fontStyle=1;align=center;spacing=9;strokeOpacity=100;fillOpacity=100;rounded=1;absoluteArcSize=1;arcSize=12;fillColor=#BAB2FF;strokeWidth=2.3;lucidId=0c_j3FTjjWoH;" parent="1" vertex="1">
          <mxGeometry x="-440" y="27" width="195" height="90" as="geometry" />
        </mxCell>
        <mxCell id="cWuKMoKahMMsqKZCvLfM-37" style="edgeStyle=orthogonalEdgeStyle;rounded=0;orthogonalLoop=1;jettySize=auto;html=1;exitX=1;exitY=0.5;exitDx=0;exitDy=0;entryX=0;entryY=0.5;entryDx=0;entryDy=0;strokeWidth=2;" parent="1" source="cWuKMoKahMMsqKZCvLfM-8" target="cWuKMoKahMMsqKZCvLfM-36" edge="1">
          <mxGeometry relative="1" as="geometry" />
        </mxCell>
        <mxCell id="cWuKMoKahMMsqKZCvLfM-8" value="LD VMT by Load Zone Region within Each State" style="html=1;overflow=block;blockSpacing=1;whiteSpace=wrap;fontSize=16.8;fontStyle=1;align=center;spacing=9;strokeOpacity=100;fillOpacity=100;rounded=1;absoluteArcSize=1;arcSize=12;fillColor=#BAB2FF;strokeWidth=2.3;lucidId=Qf_jCI67Q3wd;" parent="1" vertex="1">
          <mxGeometry x="-440" y="-109" width="195" height="90" as="geometry" />
        </mxCell>
        <mxCell id="cWuKMoKahMMsqKZCvLfM-40" style="edgeStyle=orthogonalEdgeStyle;rounded=0;orthogonalLoop=1;jettySize=auto;html=1;exitX=1;exitY=0.5;exitDx=0;exitDy=0;entryX=0;entryY=0.5;entryDx=0;entryDy=0;strokeWidth=2;" parent="1" source="cWuKMoKahMMsqKZCvLfM-10" target="cWuKMoKahMMsqKZCvLfM-39" edge="1">
          <mxGeometry relative="1" as="geometry" />
        </mxCell>
        <mxCell id="cWuKMoKahMMsqKZCvLfM-10" value="LDV Fueling Profile (over a Week)" style="html=1;overflow=block;blockSpacing=1;whiteSpace=wrap;fontSize=16.8;fontStyle=1;align=center;spacing=9;strokeOpacity=100;fillOpacity=100;rounded=0;absoluteArcSize=1;arcSize=12;strokeWidth=2.3;lucidId=vB_j5El_Hg4W;strokeColor=#1C9B1F;" parent="1" vertex="1">
          <mxGeometry x="-168" y="-242.5" width="195" height="95" as="geometry" />
        </mxCell>
        <mxCell id="cWuKMoKahMMsqKZCvLfM-30" style="edgeStyle=orthogonalEdgeStyle;rounded=0;orthogonalLoop=1;jettySize=auto;html=1;exitX=1;exitY=0.5;exitDx=0;exitDy=0;entryX=0;entryY=0.5;entryDx=0;entryDy=0;strokeWidth=2;" parent="1" target="cWuKMoKahMMsqKZCvLfM-6" edge="1">
          <mxGeometry relative="1" as="geometry">
            <mxPoint x="-525" y="-195" as="sourcePoint" />
          </mxGeometry>
        </mxCell>
        <mxCell id="cWuKMoKahMMsqKZCvLfM-33" style="edgeStyle=orthogonalEdgeStyle;rounded=0;orthogonalLoop=1;jettySize=auto;html=1;exitX=1;exitY=0.5;exitDx=0;exitDy=0;entryX=0;entryY=0.5;entryDx=0;entryDy=0;strokeWidth=2;" parent="1" source="cWuKMoKahMMsqKZCvLfM-12" target="cWuKMoKahMMsqKZCvLfM-6" edge="1">
          <mxGeometry relative="1" as="geometry" />
        </mxCell>
        <mxCell id="cWuKMoKahMMsqKZCvLfM-12" value="Gasoline to H2 Energy Equivalence" style="html=1;overflow=block;blockSpacing=1;whiteSpace=wrap;fontSize=16.7;fontStyle=1;align=center;spacing=9;strokeOpacity=100;fillOpacity=0;rounded=0;absoluteArcSize=1;arcSize=12;fillColor=#000000;strokeWidth=2.3;lucidId=4p.pPyBsTCvJ;strokeColor=#1C9B1F;" parent="1" vertex="1">
          <mxGeometry x="-717" y="27" width="195" height="90" as="geometry" />
        </mxCell>
        <mxCell id="cWuKMoKahMMsqKZCvLfM-32" style="edgeStyle=orthogonalEdgeStyle;rounded=0;orthogonalLoop=1;jettySize=auto;html=1;exitX=1;exitY=0.5;exitDx=0;exitDy=0;entryX=0;entryY=0.5;entryDx=0;entryDy=0;strokeWidth=2;" parent="1" source="cWuKMoKahMMsqKZCvLfM-13" target="cWuKMoKahMMsqKZCvLfM-6" edge="1">
          <mxGeometry relative="1" as="geometry" />
        </mxCell>
        <mxCell id="cWuKMoKahMMsqKZCvLfM-13" value="Projected Gasoline Consumption from LD Transport by State" style="html=1;overflow=block;blockSpacing=1;whiteSpace=wrap;fontSize=16.8;fontStyle=1;align=center;spacing=9;strokeOpacity=100;fillOpacity=100;rounded=1;absoluteArcSize=1;arcSize=12;fillColor=#BAB2FF;strokeWidth=2.3;lucidId=~h6rGYWSRmal;" parent="1" vertex="1">
          <mxGeometry x="-717" y="-120" width="195" height="112" as="geometry" />
        </mxCell>
        <mxCell id="cWuKMoKahMMsqKZCvLfM-42" style="edgeStyle=orthogonalEdgeStyle;rounded=0;orthogonalLoop=1;jettySize=auto;html=1;exitX=1;exitY=0.5;exitDx=0;exitDy=0;entryX=0;entryY=0.5;entryDx=0;entryDy=0;strokeWidth=2;" parent="1" source="cWuKMoKahMMsqKZCvLfM-18" target="cWuKMoKahMMsqKZCvLfM-39" edge="1">
          <mxGeometry relative="1" as="geometry" />
        </mxCell>
        <mxCell id="cWuKMoKahMMsqKZCvLfM-18" value="Weekly 4-Week Moving Average of U.S. Product Supplied of Gasoline in 2024" style="html=1;overflow=block;blockSpacing=1;whiteSpace=wrap;fontSize=16;fontStyle=1;align=center;spacing=9;strokeOpacity=100;fillOpacity=100;rounded=0;absoluteArcSize=1;arcSize=12;fillColor=default;strokeWidth=2.3;lucidId=L5OtnDn3VvMG;strokeColor=#1C9B1F;" parent="1" vertex="1">
          <mxGeometry x="-168" y="27" width="195" height="107" as="geometry" />
        </mxCell>
        <mxCell id="cWuKMoKahMMsqKZCvLfM-25" style="edgeStyle=orthogonalEdgeStyle;rounded=0;orthogonalLoop=1;jettySize=auto;html=1;exitX=0.5;exitY=1;exitDx=0;exitDy=0;entryX=0.5;entryY=0;entryDx=0;entryDy=0;strokeWidth=2;" parent="1" source="cWuKMoKahMMsqKZCvLfM-19" target="cWuKMoKahMMsqKZCvLfM-8" edge="1">
          <mxGeometry relative="1" as="geometry" />
        </mxCell>
        <mxCell id="cWuKMoKahMMsqKZCvLfM-19" value="HPMS 2023 Road Traffic Data" style="html=1;overflow=block;blockSpacing=1;whiteSpace=wrap;fontSize=16.8;fontStyle=1;align=center;spacing=9;strokeOpacity=100;fillOpacity=0;rounded=0;absoluteArcSize=1;arcSize=12;fillColor=#000000;strokeWidth=2.3;lucidId=MCaMwGwd_Zn1;strokeColor=#1C9B1F;" parent="1" vertex="1">
          <mxGeometry x="-440" y="-240" width="195" height="90" as="geometry" />
        </mxCell>
        <mxCell id="cWuKMoKahMMsqKZCvLfM-22" value="&lt;span style=&quot;color: rgb(0, 0, 0); font-family: Helvetica; font-size: 17px; font-style: normal; font-variant-ligatures: normal; font-variant-caps: normal; font-weight: 700; letter-spacing: normal; orphans: 2; text-indent: 0px; text-transform: none; widows: 2; word-spacing: 0px; -webkit-text-stroke-width: 0px; white-space: normal; text-decoration-thickness: initial; text-decoration-style: initial; text-decoration-color: initial; float: none; display: inline !important;&quot;&gt;Step 1: Project gasoline consumption by state to the model year&lt;/span&gt;" style="text;whiteSpace=wrap;html=1;align=center;" parent="1" vertex="1">
          <mxGeometry x="-997.5" y="-330" width="197.5" height="70" as="geometry" />
        </mxCell>
        <mxCell id="cWuKMoKahMMsqKZCvLfM-23" value="&lt;span style=&quot;color: rgb(0, 0, 0); font-family: Helvetica; font-size: 17px; font-style: normal; font-variant-ligatures: normal; font-variant-caps: normal; font-weight: 700; letter-spacing: normal; orphans: 2; text-indent: 0px; text-transform: none; widows: 2; word-spacing: 0px; -webkit-text-stroke-width: 0px; white-space: normal; text-decoration-thickness: initial; text-decoration-style: initial; text-decoration-color: initial; float: none; display: inline !important;&quot;&gt;Step 2: Calculate projected&amp;nbsp; H2 demand by State&lt;/span&gt;" style="text;whiteSpace=wrap;html=1;align=center;labelBackgroundColor=none;" parent="1" vertex="1">
          <mxGeometry x="-727" y="-323.5" width="230" height="51" as="geometry" />
        </mxCell>
        <mxCell id="cWuKMoKahMMsqKZCvLfM-24" value="&lt;span style=&quot;font-family: Helvetica; font-size: 17px; font-style: normal; font-variant-ligatures: normal; font-variant-caps: normal; font-weight: 700; letter-spacing: normal; orphans: 2; text-indent: 0px; text-transform: none; widows: 2; word-spacing: 0px; -webkit-text-stroke-width: 0px; white-space: normal; text-decoration-thickness: initial; text-decoration-style: initial; text-decoration-color: initial; float: none; display: inline !important;&quot;&gt;Step 3: Spatially disaggregate by load zone&lt;/span&gt;" style="text;whiteSpace=wrap;html=1;fontColor=default;labelBackgroundColor=none;align=center;" parent="1" vertex="1">
          <mxGeometry x="-440" y="-331.5" width="200" height="52.5" as="geometry" />
        </mxCell>
        <mxCell id="cWuKMoKahMMsqKZCvLfM-35" value="&lt;span style=&quot;font-family: Helvetica; font-size: 17px; font-style: normal; font-variant-ligatures: normal; font-variant-caps: normal; font-weight: 700; letter-spacing: normal; orphans: 2; text-indent: 0px; text-transform: none; widows: 2; word-spacing: 0px; -webkit-text-stroke-width: 0px; white-space: normal; text-decoration-thickness: initial; text-decoration-style: initial; text-decoration-color: initial; float: none; display: inline !important;&quot;&gt;Step 4: Temporally disaggregate&lt;/span&gt;" style="text;whiteSpace=wrap;html=1;fontColor=default;labelBackgroundColor=none;align=center;" parent="1" vertex="1">
          <mxGeometry x="-165.5" y="-317" width="190" height="50" as="geometry" />
        </mxCell>
        <mxCell id="dEbh50wQoavsR-OBHUa4-16" style="edgeStyle=orthogonalEdgeStyle;rounded=0;orthogonalLoop=1;jettySize=auto;html=1;exitX=1;exitY=0.5;exitDx=0;exitDy=0;strokeWidth=2;" edge="1" parent="1" source="cWuKMoKahMMsqKZCvLfM-36" target="cWuKMoKahMMsqKZCvLfM-39">
          <mxGeometry relative="1" as="geometry" />
        </mxCell>
        <mxCell id="cWuKMoKahMMsqKZCvLfM-36" value="Projected LD Transport H2 Demand by Load Zone" style="html=1;overflow=block;blockSpacing=1;whiteSpace=wrap;fontSize=16.8;fontStyle=1;align=center;spacing=9;strokeOpacity=100;fillOpacity=100;rounded=1;absoluteArcSize=1;arcSize=12;fillColor=#BAB2FF;strokeWidth=2.3;lucidId=Qf_jCI67Q3wd;" parent="1" vertex="1">
          <mxGeometry x="-168" y="-109" width="195" height="90" as="geometry" />
        </mxCell>
        <mxCell id="cWuKMoKahMMsqKZCvLfM-39" value="&lt;font&gt;LD Transport&amp;nbsp;H2 Demand Profile by Load Zone&lt;/font&gt;" style="html=1;overflow=block;blockSpacing=1;whiteSpace=wrap;fontSize=16.8;fontStyle=1;align=center;spacing=9;strokeOpacity=100;fillOpacity=100;rounded=1;absoluteArcSize=1;arcSize=12;strokeWidth=2.3;lucidId=Qf_jCI67Q3wd;shadow=1;fillColor=#6666FF;fontColor=#ffffff;strokeColor=#000000;" parent="1" vertex="1">
          <mxGeometry x="109" y="-109" width="195" height="90" as="geometry" />
        </mxCell>
        <mxCell id="cWuKMoKahMMsqKZCvLfM-44" value="&lt;font style=&quot;font-size: 18px;&quot;&gt;Legend:&lt;/font&gt;" style="text;whiteSpace=wrap;html=1;" parent="1" vertex="1">
          <mxGeometry x="-431" y="182" width="250" height="40" as="geometry" />
        </mxCell>
        <mxCell id="cWuKMoKahMMsqKZCvLfM-45" value="&lt;font style=&quot;font-size: 15px; font-weight: normal;&quot;&gt;Input Data&lt;/font&gt;" style="html=1;overflow=block;blockSpacing=1;whiteSpace=wrap;fontSize=16.7;fontStyle=1;align=center;spacing=9;strokeOpacity=100;fillOpacity=0;rounded=0;absoluteArcSize=1;arcSize=12;fillColor=#000000;strokeWidth=2.3;lucidId=k7AmEFViBjR.;strokeColor=#1C9B1F;" parent="1" vertex="1">
          <mxGeometry x="-351" y="172" width="110" height="60" as="geometry" />
        </mxCell>
        <mxCell id="cWuKMoKahMMsqKZCvLfM-46" value="&lt;font style=&quot;font-size: 15px; font-weight: normal;&quot;&gt;Intermediate Outputs&lt;/font&gt;" style="html=1;overflow=block;blockSpacing=1;whiteSpace=wrap;fontSize=16.8;fontStyle=1;align=center;spacing=9;strokeOpacity=100;fillOpacity=100;rounded=1;absoluteArcSize=1;arcSize=12;fillColor=#BAB2FF;strokeWidth=2.3;lucidId=Qf_jCI67Q3wd;" parent="1" vertex="1">
          <mxGeometry x="-91" y="172" width="127.5" height="60" as="geometry" />
        </mxCell>
        <mxCell id="cWuKMoKahMMsqKZCvLfM-48" value="&lt;font style=&quot;font-size: 14px; font-weight: normal;&quot;&gt;Final Outputs&lt;/font&gt;" style="html=1;overflow=block;blockSpacing=1;whiteSpace=wrap;fontSize=16.8;fontStyle=1;align=center;spacing=9;strokeOpacity=100;fillOpacity=100;rounded=1;absoluteArcSize=1;arcSize=12;strokeWidth=2.3;lucidId=Qf_jCI67Q3wd;shadow=1;fillColor=#6666FF;fontColor=#ffffff;strokeColor=#000000;" parent="1" vertex="1">
          <mxGeometry x="59" y="172" width="140" height="60" as="geometry" />
        </mxCell>
        <mxCell id="dEbh50wQoavsR-OBHUa4-7" value="% of Projected Gasoline Demand Offset by H2" style="html=1;overflow=block;blockSpacing=1;whiteSpace=wrap;fontSize=16.8;fontStyle=1;align=center;spacing=9;strokeOpacity=100;fillOpacity=100;rounded=0;absoluteArcSize=1;arcSize=12;fillColor=#97D077;strokeWidth=2.3;lucidId=0c_j3FTjjWoH;" vertex="1" parent="1">
          <mxGeometry x="-717" y="-250" width="195" height="90" as="geometry" />
        </mxCell>
        <mxCell id="dEbh50wQoavsR-OBHUa4-8" value="&lt;span style=&quot;font-weight: normal;&quot;&gt;&lt;font style=&quot;font-size: 15px;&quot;&gt;Scenario Inputs&lt;/font&gt;&lt;/span&gt;" style="html=1;overflow=block;blockSpacing=1;whiteSpace=wrap;fontSize=16.8;fontStyle=1;align=center;spacing=9;strokeOpacity=100;fillOpacity=100;rounded=0;absoluteArcSize=1;arcSize=12;fillColor=#97D077;strokeWidth=2.3;lucidId=0c_j3FTjjWoH;" vertex="1" parent="1">
          <mxGeometry x="-221" y="171" width="110" height="60" as="geometry" />
        </mxCell>
      </root>
    </mxGraphModel>
  </diagram>
</mxfile>
